<svg width="24" height="24" viewBox="0 0 24 24" fill="none" xmlns="http://www.w3.org/2000/svg">
<g clip-path="url(#clip0_572281_304)">
<path d="M23.9941 24.0001V23.9991H24.0001V15.1971C24.0001 10.8911 23.0731 7.5741 18.0391 7.5741C15.6191 7.5741 13.9951 8.9021 13.3321 10.1611H13.2621V7.9761H8.48907V23.9991H13.4591V16.0651C13.4591 13.9761 13.8551 11.9561 16.4421 11.9561C18.9911 11.9561 19.0291 14.3401 19.0291 16.1991V24.0001H23.9941Z" fill="#F4F4FD"/>
<path d="M0.396057 7.97693H5.37206V23.9999H0.396057V7.97693Z" fill="#F4F4FD"/>
<path d="M2.88206 0C1.29106 0 6.10352e-05 1.291 6.10352e-05 2.882C6.10352e-05 4.473 1.29106 5.791 2.88206 5.791C4.47306 5.791 5.76406 4.473 5.76406 2.882C5.76306 1.291 4.47206 0 2.88206 0V0Z" fill="#F4F4FD"/>
</g>
<defs>
<clipPath id="clip0_572281_304">
<rect width="24" height="24" fill="white"/>
</clipPath>
</defs>
</svg>
