<svg >
<path d="M6.436 5.738H9.154L10.486 9.824L11.818 5.738H14.554L12.376 11.678L13.672 15.08L16.876 5.72H20.098L15.112 18.5H12.556L10.486 13.496L8.434 18.5H5.86L0.892 5.72H4.096L7.318 15.08L8.578 11.678L6.436 5.738Z" />
<path d="M30.892 9.464C30.856 9.404 30.73 9.314 30.514 9.194C30.298 9.062 30.028 8.924 29.704 8.78C29.38 8.636 29.026 8.51 28.642 8.402C28.258 8.294 27.874 8.24 27.49 8.24C26.986 8.24 26.596 8.33 26.32 8.51C26.044 8.678 25.906 8.942 25.906 9.302C25.906 9.59 26.008 9.818 26.212 9.986C26.428 10.154 26.734 10.304 27.13 10.436C27.526 10.556 28.012 10.7 28.588 10.868C29.404 11.084 30.112 11.348 30.712 11.66C31.312 11.96 31.768 12.35 32.08 12.83C32.404 13.31 32.566 13.946 32.566 14.738C32.566 15.458 32.434 16.07 32.17 16.574C31.906 17.066 31.546 17.468 31.09 17.78C30.646 18.08 30.136 18.302 29.56 18.446C28.984 18.578 28.39 18.644 27.778 18.644C27.154 18.644 26.512 18.584 25.852 18.464C25.204 18.332 24.58 18.152 23.98 17.924C23.38 17.684 22.828 17.396 22.324 17.06L23.62 14.486C23.668 14.546 23.824 14.66 24.088 14.828C24.352 14.984 24.676 15.152 25.06 15.332C25.456 15.5 25.894 15.65 26.374 15.782C26.854 15.914 27.34 15.98 27.832 15.98C28.36 15.98 28.75 15.896 29.002 15.728C29.266 15.56 29.398 15.326 29.398 15.026C29.398 14.702 29.26 14.45 28.984 14.27C28.72 14.09 28.354 13.928 27.886 13.784C27.43 13.64 26.902 13.478 26.302 13.298C25.522 13.058 24.874 12.788 24.358 12.488C23.854 12.188 23.476 11.822 23.224 11.39C22.984 10.958 22.864 10.418 22.864 9.77C22.864 8.87 23.074 8.114 23.494 7.502C23.926 6.878 24.502 6.41 25.222 6.098C25.942 5.774 26.728 5.612 27.58 5.612C28.18 5.612 28.756 5.684 29.308 5.828C29.872 5.972 30.394 6.152 30.874 6.368C31.366 6.584 31.804 6.8 32.188 7.016L30.892 9.464Z" />
</svg>
