<svg xmlns="http://www.w3.org/2000/svg" width="64" height="64" viewBox="0 0 64 64" fill="none">
  <g clip-path="url(#clip0_302815_5537)">
    <path d="M29.8511 29.9292H31.9833V39.5242H29.8511V29.9292Z" fill="#4D5AE5"/>
    <path d="M38.3799 34.1936H40.5121V39.5241H38.3799V34.1936Z" fill="#4D5AE5"/>
    <path d="M21.3223 37.392H23.4545V39.5242H21.3223V37.392Z" fill="#4D5AE5"/>
    <path d="M14.9255 36.3258H17.0578V39.5241H14.9255V36.3258Z" fill="#4D5AE5"/>
    <path d="M3.19833 56.5819H54.3715C56.1378 56.5819 57.5699 55.1499 57.5699 53.3836V49.1192C57.5699 47.3529 56.1378 45.9208 54.3715 45.9208H53.3054V19.3342L59.3611 13.5976C60.7666 14.2905 62.4678 13.8699 63.3876 12.6003C64.308 11.3311 64.1789 9.58361 63.0826 8.46336C61.9863 7.34311 60.2424 7.17601 58.953 8.06773C57.6641 8.95997 57.206 10.6513 57.8681 12.0719L53.3054 16.3972V13.9376C53.3054 12.1713 51.8734 10.7393 50.1071 10.7393H7.46276C5.6965 10.7393 4.26443 12.1713 4.26443 13.9376V45.9208H3.19833C1.43206 45.9208 0 47.3529 0 49.1192V53.3836C0 55.1499 1.43206 56.5819 3.19833 56.5819ZM60.7682 9.67314C61.3569 9.67314 61.8343 10.1505 61.8343 10.7393C61.8343 11.328 61.3569 11.8054 60.7682 11.8054C60.1794 11.8054 59.7021 11.328 59.7021 10.7393C59.7021 10.1505 60.1794 9.67314 60.7682 9.67314ZM6.39665 13.9376C6.39665 13.3488 6.874 12.8715 7.46276 12.8715H50.1071C50.6958 12.8715 51.1732 13.3488 51.1732 13.9376V18.4149L49.041 20.4409V16.0698C49.041 15.481 48.5636 15.0037 47.9749 15.0037H9.59498C9.00622 15.0037 8.52887 15.481 8.52887 16.0698V42.7225C8.52887 43.3113 9.00622 43.7886 9.59498 43.7886H47.9749C48.5636 43.7886 49.041 43.3113 49.041 42.7225V23.3738L51.1732 21.3535V45.9208H6.39665V13.9376ZM15.9916 27.797C14.5492 27.7928 13.2826 28.7538 12.899 30.1442C12.5153 31.5346 13.1093 33.0094 14.3498 33.7454C15.5898 34.4815 17.1697 34.2967 18.2061 33.2936L21.912 35.153C22.3425 35.3685 22.8646 35.2676 23.1847 34.9078L31.0624 26.0453L38.8062 31.848C39.2216 32.1593 39.8016 32.126 40.1784 31.7694L46.9088 25.3941V41.6564H10.6611V17.1359H46.9088V22.4566L39.3658 29.5997L31.5569 23.7455C31.1134 23.4133 30.4892 23.4758 30.1207 23.8897L22.1348 32.8751L19.1493 31.3821C19.1712 31.254 19.1847 31.1249 19.19 30.9953C19.19 29.2291 17.7579 27.797 15.9916 27.797ZM17.0577 30.9953C17.0577 31.5841 16.5804 32.0614 15.9916 32.0614C15.4029 32.0614 14.9255 31.5841 14.9255 30.9953C14.9255 30.4066 15.4029 29.9292 15.9916 29.9292C16.5804 29.9292 17.0577 30.4066 17.0577 30.9953ZM23.4544 48.0531H34.1155V49.1192C34.1155 49.7079 33.6381 50.1853 33.0494 50.1853H24.5205C23.9317 50.1853 23.4544 49.7079 23.4544 49.1192V48.0531ZM2.13222 49.1192C2.13222 48.5304 2.60957 48.0531 3.19833 48.0531H21.3222V49.1192C21.3222 50.8854 22.7542 52.3175 24.5205 52.3175H33.0494C34.8156 52.3175 36.2477 50.8854 36.2477 49.1192V48.0531H54.3715C54.9603 48.0531 55.4376 48.5304 55.4376 49.1192V53.3836C55.4376 53.9723 54.9603 54.4497 54.3715 54.4497H3.19833C2.60957 54.4497 2.13222 53.9723 2.13222 53.3836V49.1192Z" fill="#2E2F42"/>
  </g>
  <defs>
    <clipPath id="clip0_302815_5537">
      <rect width="64" height="64" fill="white"/>
    </clipPath>
  </defs>
</svg>